<?xml version="1.0" encoding="iso-8859-1"?>
<!-- Generator: Adobe Illustrator 18.1.1, SVG Export Plug-In . SVG Version: 6.00 Build 0)  -->
<svg version="1.1" id="Capa_1" xmlns="http://www.w3.org/2000/svg" xmlns:xlink="http://www.w3.org/1999/xlink" x="0px" y="0px"
	 viewBox="0 0 20.495 20.495" style="enable-background:new 0 0 20.495 20.495;" xml:space="preserve">
<g>
	<g>
		<path fill="white" d="M14.183,1.272c-1.666,0-3.26,0.663-4.44,1.832C9.358,3.002,8.965,2.95,8.571,2.95
			c-1.396,0-2.706,0.626-3.583,1.694c-0.119-0.01-0.237-0.015-0.353-0.015C2.079,4.629,0,6.709,0,9.266
			c0,2.392,1.793,4.376,4.172,4.611l8.235,0.002c0.011,0,0.017,0.006,0.025,0.006h1.235h0.004h0.246l0.002-0.002l0.636,0.002
			l0.022-0.002c3.318-0.207,5.918-2.974,5.918-6.295C20.498,4.106,17.666,1.272,14.183,1.272z M14.511,12.478h-0.583
			c-0.003,0-0.007,0-0.009,0h-0.246h-0.004h-1.236c-0.001,0-0.001,0-0.001,0H4.279c-1.641-0.18-2.875-1.555-2.875-3.212
			c0-1.782,1.449-3.232,3.231-3.232c0.171,0,0.351,0.017,0.552,0.052l0.448,0.077l0.254-0.376c0.816-1.214,2.4-1.752,3.816-1.222
			l0.456,0.171l0.321-0.367c0.936-1.075,2.284-1.691,3.701-1.691c2.707,0,4.908,2.203,4.908,4.91
			C19.091,10.163,17.082,12.306,14.511,12.478z"/>
		<path fill="white" d="M3.779,18.14c0,0.6,0.434,1.084,0.969,1.084s0.97-0.484,0.97-1.084s-0.97-1.566-0.97-1.566
			S3.779,17.54,3.779,18.14z"/>
		<path fill="white" d="M13.371,15.79c0,0.434,0.267,0.783,0.596,0.783c0.328,0,0.597-0.351,0.597-0.783
			c0-0.432-0.597-1.131-0.597-1.131S13.371,15.359,13.371,15.79z"/>
		<path fill="white" d="M11.754,16.339c-0.006-0.063-0.014-0.122-0.021-0.179c-0.008-0.056-0.016-0.107-0.023-0.153
			c-0.01-0.053-0.02-0.093-0.027-0.117c-0.059-0.191-0.221-0.277-0.419-0.212c-0.042,0.013-0.109,0.039-0.2,0.082
			c-0.085,0.039-0.186,0.088-0.302,0.145c-0.116,0.057-0.241,0.12-0.376,0.188l-0.188,0.094l0.256-1.369l-0.109-0.031
			c-0.114-0.032-0.232-0.059-0.354-0.079c-0.125-0.021-0.215-0.031-0.273-0.031c-0.21,0-0.336,0.126-0.336,0.336
			c0,0.061,0.012,0.179,0.033,0.361c0.021,0.177,0.051,0.377,0.086,0.601l0.031,0.207l-1.211-0.664l-0.064,0.091
			c-0.069,0.098-0.133,0.203-0.19,0.313C8.008,16.035,7.97,16.118,7.95,16.19c-0.005,0.022-0.008,0.041-0.01,0.057
			c-0.003,0.02-0.005,0.04-0.005,0.062c0,0.145,0.089,0.249,0.232,0.282c0.037,0.013,0.105,0.03,0.204,0.051
			c0.093,0.021,0.204,0.041,0.333,0.063l0.416,0.07c0.068,0.012,0.139,0.023,0.209,0.034L8.31,17.763l0.075,0.091
			c0.076,0.093,0.158,0.183,0.245,0.269c0.091,0.092,0.161,0.152,0.19,0.167c0.078,0.079,0.158,0.096,0.211,0.096
			c0.074,0,0.18-0.027,0.254-0.144c0.025-0.03,0.066-0.091,0.119-0.183c0.047-0.084,0.102-0.184,0.163-0.3
			c0.061-0.116,0.126-0.242,0.196-0.379l0.096-0.185l0.601,1.276l0.112-0.052c0.053-0.023,0.105-0.05,0.162-0.078
			c0.053-0.026,0.105-0.051,0.154-0.074c0.054-0.024,0.102-0.049,0.143-0.071c0.041-0.022,0.072-0.04,0.109-0.064
			c0.108-0.094,0.131-0.192,0.131-0.259c0-0.073-0.021-0.141-0.07-0.21c-0.024-0.028-0.07-0.078-0.137-0.148l-0.228-0.243
			c-0.089-0.094-0.187-0.196-0.295-0.307c-0.049-0.049-0.098-0.099-0.147-0.148l1.266-0.161l0.115-0.021l-0.008-0.117
			C11.764,16.457,11.76,16.399,11.754,16.339z"/>
	</g>
</g>
<g>
</g>
<g>
</g>
<g>
</g>
<g>
</g>
<g>
</g>
<g>
</g>
<g>
</g>
<g>
</g>
<g>
</g>
<g>
</g>
<g>
</g>
<g>
</g>
<g>
</g>
<g>
</g>
<g>
</g>
</svg>
