<svg xmlns="http://www.w3.org/2000/svg" viewBox="0 0 32 32">
  <path fill="#fff" d="M27.586 14.212C26.66 11.751 24.284 10 21.5 10c-.641 0-1.26.093-1.846.266C18.068 7.705 15.233 6 12 6c-4.905 0-8.893 3.924-8.998 8.803C1.208 15.842 0 17.783 0 20c0 3.312 2.687 6 6 6h20c3.312 0 6-2.693 6-6 0-2.766-1.87-5.093-4.414-5.788zM26.003 24H5.997C3.794 24 2 22.209 2 20c0-1.893 1.318-3.482 3.086-3.896C5.03 15.745 5 15.376 5 15c0-3.866 3.134-7 7-7 3.162 0 5.834 2.097 6.702 4.975.769-.611 1.739-.975 2.798-.975 2.316 0 4.225 1.75 4.473 4h.03C28.206 16 30 17.791 30 20c0 2.205-1.789 4-3.997 4z"/>
</svg>