<svg xmlns="http://www.w3.org/2000/svg" viewBox="0 0 32.004 32.004">
  <g fill="#fff">
    <path d="M20 28.002c-.553 0-1 .443-1 1.01v1.98c0 .558.443 1.01 1 1.01.553 0 1-.443 1-1.01v-1.98c0-.558-.443-1.01-1-1.01zm-8 0c-.553 0-1 .443-1 1.01v1.98c0 .558.444 1.01 1 1.01.553 0 1-.443 1-1.01v-1.98c0-.558-.444-1.01-1-1.01zm12-2c-.553 0-1 .443-1 1.01v1.98c0 .558.443 1.01 1 1.01.553 0 1-.443 1-1.01v-1.98c0-.558-.443-1.01-1-1.01zm3.586-12.788c-.172-.456-.393-.887-.656-1.287.047-.302.07-.611.07-.925 0-3.313-2.688-6-6-6-1.533 0-2.932.575-3.992 1.521-1.432-.96-3.154-1.521-5.008-1.521-4.904 0-8.894 3.924-8.998 8.803C1.207 14.844 0 16.785 0 19.002c0 3.312 2.688 6 6 6h20c3.312 0 6-2.693 6-6 0-2.765-1.87-5.093-4.414-5.788zM21 7.002c1.839 0 3.389 1.241 3.855 2.933-.979-.592-2.126-.933-3.355-.933-.641 0-1.26.093-1.844.266-.319-.515-.688-.994-1.1-1.432.674-.523 1.523-.834 2.444-.834zm5.003 16H5.997c-2.203 0-3.997-1.791-3.997-4 0-1.893 1.317-3.482 3.087-3.896-.058-.359-.087-.728-.087-1.104 0-3.866 3.134-7 7-7 3.162 0 5.834 2.097 6.702 4.975.769-.611 1.739-.975 2.798-.975 2.316 0 4.225 1.75 4.473 4h.03c2.203 0 3.997 1.791 3.997 4 0 2.205-1.789 4-3.997 4zm-10.003 3c-.553 0-1 .443-1 1.01v1.98c0 .558.444 1.01 1 1.01.553 0 1-.443 1-1.01v-1.98c0-.558-.443-1.01-1-1.01zM27.373 6.047l1.4-1.401c.396-.394.399-1.027.008-1.421-.391-.39-1.021-.393-1.422.007l-1.4 1.401c-.395.394-.4 1.027-.007 1.421.391.39 1.021.393 1.421-.007zM8 26.002c-.553 0-1 .443-1 1.01v1.98c0 .558.444 1.01 1 1.01.553 0 1-.443 1-1.01v-1.98c0-.558-.444-1.01-1-1.01zm13-22c.553 0 1-.443 1-1.01v-1.98c0-.558-.443-1.01-1-1.01-.553 0-1 .443-1 1.01v1.98c0 .558.443 1.01 1 1.01z"/>
    <path d="M28.004 11.006c0 .552.443 1 1.01 1h1.98c.558 0 1.01-.444 1.01-1 0-.553-.443-1-1.01-1h-1.98c-.558 0-1.01.443-1.01 1z"/>
  </g>
</svg>