<?xml version="1.0" encoding="iso-8859-1"?>
<!-- Generator: Adobe Illustrator 18.1.1, SVG Export Plug-In . SVG Version: 6.00 Build 0)  -->
<svg version="1.1" id="Capa_1" xmlns="http://www.w3.org/2000/svg" xmlns:xlink="http://www.w3.org/1999/xlink" x="0px" y="0px"
	 viewBox="0 0 32.004 32.004" style="enable-background:new 0 0 32.004 32.004;" xml:space="preserve">
<g>
	<g>
		<path fill="white" d="M20,28.002c-0.553,0-1,0.443-1,1.01v1.98c0,0.558,0.443,1.01,1,1.01c0.553,0,1-0.443,1-1.01v-1.98
			C21,28.454,20.557,28.002,20,28.002z"/>
		<path fill="white" d="M12,28.002c-0.553,0-1,0.443-1,1.01v1.98c0,0.558,0.444,1.01,1,1.01c0.553,0,1-0.443,1-1.01v-1.98
			C13,28.454,12.556,28.002,12,28.002z"/>
		<path fill="white" d="M24,26.002c-0.553,0-1,0.443-1,1.01v1.98c0,0.558,0.443,1.01,1,1.01c0.553,0,1-0.443,1-1.01v-1.98
			C25,26.454,24.557,26.002,24,26.002z"/>
		<path fill="white" d="M27.586,13.214c-0.172-0.456-0.393-0.887-0.656-1.287c0.047-0.302,0.07-0.611,0.07-0.925
			c0-3.313-2.688-6-6-6c-1.533,0-2.932,0.575-3.992,1.521C15.576,5.563,13.854,5.002,12,5.002c-4.904,0-8.894,3.924-8.998,8.803
			C1.207,14.844,0,16.785,0,19.002c0,3.312,2.688,6,6,6h20c3.312,0,6-2.693,6-6C32,16.237,30.13,13.909,27.586,13.214z M21,7.002
			c1.839,0,3.389,1.241,3.855,2.933c-0.979-0.592-2.126-0.933-3.355-0.933c-0.641,0-1.26,0.093-1.844,0.266
			c-0.319-0.515-0.688-0.994-1.1-1.432C19.23,7.313,20.079,7.002,21,7.002z M26.003,23.002H5.997c-2.203,0-3.997-1.791-3.997-4
			c0-1.893,1.317-3.482,3.087-3.896C5.029,14.747,5,14.378,5,14.002c0-3.866,3.134-7,7-7c3.162,0,5.834,2.097,6.702,4.975
			c0.769-0.611,1.739-0.975,2.798-0.975c2.316,0,4.225,1.75,4.473,4h0.03c2.203,0,3.997,1.791,3.997,4
			C30,21.207,28.211,23.002,26.003,23.002z"/>
		<path fill="white" d="M16,26.002c-0.553,0-1,0.443-1,1.01v1.98c0,0.558,0.444,1.01,1,1.01c0.553,0,1-0.443,1-1.01v-1.98
			C17,26.454,16.557,26.002,16,26.002z"/>
		<path fill="white" d="M27.373,6.047l1.4-1.401c0.396-0.394,0.399-1.027,0.008-1.421c-0.391-0.39-1.021-0.393-1.422,0.007
			l-1.4,1.401c-0.395,0.394-0.4,1.027-0.007,1.421C26.343,6.444,26.973,6.447,27.373,6.047z"/>
		<path fill="white" d="M8,26.002c-0.553,0-1,0.443-1,1.01v1.98c0,0.558,0.444,1.01,1,1.01c0.553,0,1-0.443,1-1.01v-1.98
			C9,26.454,8.556,26.002,8,26.002z"/>
		<path fill="white" d="M21,4.002c0.553,0,1-0.443,1-1.01v-1.98c0-0.558-0.443-1.01-1-1.01c-0.553,0-1,0.443-1,1.01v1.98
			C20,3.55,20.443,4.002,21,4.002z"/>
		<path fill="white" d="M28.004,11.006c0,0.552,0.443,1,1.01,1h1.98c0.558,0,1.01-0.444,1.01-1c0-0.553-0.443-1-1.01-1
			h-1.98C28.456,10.006,28.004,10.449,28.004,11.006z"/>
	</g>
</g>
<g>
</g>
<g>
</g>
<g>
</g>
<g>
</g>
<g>
</g>
<g>
</g>
<g>
</g>
<g>
</g>
<g>
</g>
<g>
</g>
<g>
</g>
<g>
</g>
<g>
</g>
<g>
</g>
<g>
</g>
</svg>
