<svg xmlns="http://www.w3.org/2000/svg" viewBox="0 0 32 32">
  <path fill="#fff" d="M20 25.5c-.553 0-1 .443-1 1.01v1.98c0 .558.443 1.01 1 1.01.553 0 1-.443 1-1.01v-1.98c0-.558-.443-1.01-1-1.01zm-8 0c-.553 0-1 .443-1 1.01v1.98c0 .558.444 1.01 1 1.01.553 0 1-.443 1-1.01v-1.98c0-.558-.444-1.01-1-1.01zm12-2c-.553 0-1 .443-1 1.01v1.98c0 .558.443 1.01 1 1.01.553 0 1-.443 1-1.01v-1.98c0-.558-.443-1.01-1-1.01zm-8 0c-.553 0-1 .443-1 1.01v1.98c0 .558.444 1.01 1 1.01.553 0 1-.443 1-1.01v-1.98c0-.558-.443-1.01-1-1.01zm-8 0c-.553 0-1 .443-1 1.01v1.98c0 .558.444 1.01 1 1.01.553 0 1-.443 1-1.01v-1.98c0-.558-.444-1.01-1-1.01zm19.586-12.788C26.66 8.251 24.284 6.5 21.5 6.5c-.641 0-1.26.093-1.846.266C18.068 4.205 15.233 2.5 12 2.5c-4.904 0-8.894 3.924-8.998 8.803C1.207 12.342 0 14.283 0 16.5c0 3.312 2.687 6 6 6h20c3.312 0 6-2.693 6-6 0-2.765-1.87-5.093-4.414-5.788zM26.003 20.5H5.997C3.794 20.5 2 18.709 2 16.5c0-1.892 1.317-3.482 3.087-3.896C5.029 12.245 5 11.876 5 11.5c0-3.866 3.134-7 7-7 3.162 0 5.834 2.097 6.702 4.975.769-.611 1.739-.975 2.798-.975 2.316 0 4.225 1.75 4.473 4h.03c2.203 0 3.997 1.791 3.997 4 0 2.205-1.789 4-3.997 4z"/>
</svg>