<svg xmlns="http://www.w3.org/2000/svg" viewBox="0 0 213.555 213.555">
  <path fill="#fff" d="M103.72 46.588c4.142 0 7.5-3.357 7.5-7.5V15.299c0-4.143-3.357-7.5-7.5-7.5-4.142 0-7.5 3.357-7.5 7.5v23.789c0 4.143 3.358 7.5 7.5 7.5zm63.948 26.481c1.919 0 3.838-.732 5.302-2.195l16.824-16.817c2.93-2.929 2.931-7.678.003-10.606-2.93-2.931-7.679-2.93-10.606-.003l-16.824 16.817c-2.93 2.929-2.931 7.678-.003 10.606 1.465 1.465 3.385 2.198 5.304 2.198zM34.485 70.871c1.464 1.465 3.384 2.197 5.303 2.197s3.839-.732 5.303-2.196c2.929-2.929 2.929-7.678 0-10.606L28.275 43.448c-2.929-2.93-7.678-2.929-10.606-.001-2.929 2.929-2.929 7.678 0 10.606l16.816 16.818zM21.093 137.02h179.929c4.143 0 7.5-3.357 7.5-7.5s-3.357-7.5-7.5-7.5h-33.491c-3.729-31.907-30.911-56.754-63.803-56.754-32.889 0-60.069 24.847-63.797 56.754H21.093c-4.142 0-7.5 3.357-7.5 7.5 0 4.142 3.358 7.5 7.5 7.5zm82.635-56.754c24.61 0 45.062 18.143 48.685 41.754H55.049c3.622-23.612 24.072-41.754 48.679-41.754zm80.923 83.621c0-4.143-3.357-7.5-7.5-7.5H7.5c-4.142 0-7.5 3.357-7.5 7.5s3.358 7.5 7.5 7.5h169.651c4.142 0 7.5-3.357 7.5-7.5zm21.404 26.869H36.696c-4.142 0-7.5 3.357-7.5 7.5s3.358 7.5 7.5 7.5h169.359c4.143 0 7.5-3.357 7.5-7.5s-3.357-7.5-7.5-7.5z"/>
</svg>