<svg xmlns="http://www.w3.org/2000/svg" viewBox="0 0 219.786 219.786">
  <path fill="#fff" d="M109.881 183.46c-4.142 0-7.5 3.358-7.5 7.5v21.324c0 4.142 3.358 7.5 7.5 7.5 4.143 0 7.5-3.358 7.5-7.5V190.96c0-4.143-3.358-7.5-7.5-7.5zm0-147.131c4.143 0 7.5-3.358 7.5-7.5V7.503c0-4.142-3.357-7.5-7.5-7.5-4.142 0-7.5 3.358-7.5 7.5v21.326c0 4.142 3.358 7.5 7.5 7.5zm-62.612 125.58l-15.084 15.076c-2.93 2.928-2.931 7.677-.003 10.606 1.465 1.465 3.385 2.198 5.305 2.198 1.919 0 3.837-.732 5.302-2.195l15.084-15.076c2.93-2.928 2.931-7.677.003-10.606-2.93-2.93-7.678-2.93-10.607-.003zM167.208 60.067c1.919 0 3.838-.732 5.303-2.196l15.082-15.076c2.929-2.929 2.93-7.677.002-10.607-2.929-2.93-7.677-2.931-10.607-.001l-15.082 15.076c-2.929 2.928-2.93 7.677-.002 10.606 1.464 1.466 3.384 2.198 5.304 2.198zM36.324 109.895c0-4.142-3.358-7.5-7.5-7.5H7.5c-4.142 0-7.5 3.358-7.5 7.5 0 4.142 3.358 7.5 7.5 7.5h21.324c4.142 0 7.5-3.358 7.5-7.5zm175.962-7.5h-21.334c-4.143 0-7.5 3.358-7.5 7.5 0 4.142 3.357 7.5 7.5 7.5h21.334c4.143 0 7.5-3.358 7.5-7.5 0-4.141-3.357-7.5-7.5-7.5zM47.267 57.871c1.464 1.464 3.384 2.196 5.303 2.196s3.839-.732 5.303-2.196c2.929-2.929 2.929-7.678 0-10.607L42.797 32.188c-2.929-2.929-7.678-2.929-10.606 0-2.929 2.929-2.929 7.678 0 10.606l15.076 15.077zm125.253 104.04c-2.929-2.929-7.678-2.93-10.607-.001-2.93 2.929-2.93 7.678-.001 10.606l15.074 15.076c1.465 1.465 3.384 2.197 5.304 2.197 1.919 0 3.839-.732 5.303-2.196 2.93-2.929 2.93-7.678.001-10.606l-15.074-15.076zM109.889 51.518c-32.187 0-58.373 26.188-58.373 58.377 0 32.188 26.186 58.375 58.373 58.375 32.19 0 58.378-26.187 58.378-58.375 0-32.189-26.189-58.377-58.378-58.377zm0 101.752c-23.916 0-43.373-19.458-43.373-43.375 0-23.918 19.457-43.377 43.373-43.377 23.919 0 43.378 19.459 43.378 43.377 0 23.917-19.459 43.375-43.378 43.375z"/>
</svg>