<svg xmlns="http://www.w3.org/2000/svg" viewBox="0 0 343.249 343.249">
  <path fill="#fff" d="M200.839 278.683l-22.104 4.736s-2.958.573-1.329-2.06c4.467-7.22 18.312-28.6 18.312-28.6 2.234-3.488 1.217-8.127-2.271-10.36-3.487-2.234-8.126-1.217-10.36 2.271l-27.593 43.094c-2.246 3.506-2.329 7.413-.224 10.451 2.107 3.038 5.793 4.331 9.864 3.458 0 0 19.128-4.126 25.512-5.466 1.423-.299.808 1.6.808 1.6l-17.628 34.529c-1.884 3.689-.42 8.207 3.27 10.09 1.093.558 2.257.822 3.404.822 2.729 0 5.36-1.494 6.686-4.091l23.998-47.007c1.818-3.563 1.596-7.394-.597-10.248-2.193-2.854-5.839-4.057-9.748-3.219zM89.777 248.536c-3.358-2.422-8.046-1.664-10.47 1.696l-18.606 25.8c-2.423 3.359-1.663 8.047 1.696 10.47 1.327.957 2.86 1.417 4.381 1.417 2.328 0 4.623-1.081 6.089-3.114l18.605-25.8c2.424-3.359 1.664-8.046-1.695-10.469zm35.369 41.945c-3.358-2.421-8.046-1.663-10.47 1.696l-18.605 25.8c-2.423 3.359-1.663 8.047 1.696 10.47 1.327.957 2.86 1.417 4.381 1.417 2.328 0 4.623-1.081 6.089-3.114l18.605-25.8c2.423-3.359 1.663-8.046-1.696-10.469zm133.316-41.945c-3.359-2.422-8.047-1.664-10.47 1.696l-18.605 25.8c-2.423 3.359-1.663 8.047 1.696 10.47 1.327.957 2.86 1.417 4.381 1.417 2.328 0 4.623-1.081 6.089-3.114l18.606-25.8c2.422-3.359 1.663-8.046-1.697-10.469zm35.369 41.945c-3.358-2.421-8.047-1.663-10.47 1.696l-18.605 25.8c-2.423 3.359-1.663 8.047 1.696 10.47 1.327.957 2.86 1.417 4.381 1.417 2.328 0 4.623-1.081 6.089-3.114l18.605-25.8c2.424-3.359 1.664-8.046-1.696-10.469zm5.461-189.596c1.666-6.172 2.182-12.521 2.182-18.771C301.474 36.836 264.638 0 219.361 0c-35.678 0-66.83 22.576-77.966 56.333-.148.45-.27 1.295-1.181 1.389-.142.015-.786.093-.934.083-.837-.055-1.759-.108-2.734-.108-26.409 0-50.029 16.675-59.708 41.813-.208.54-.964 1.482-3.286 1.155-3.251-.457-6.534-.762-9.818-.762-35.076 0-63.613 28.538-63.613 63.615s28.537 63.615 63.613 63.615h215.779c35.077 0 63.615-28.538 63.615-63.615 0-27.054-17.42-51.297-42.758-60.097-.52-.179-1.579-.678-1.078-2.536zm-19.779 111.249H63.734c-26.806 0-48.613-21.809-48.613-48.615s21.808-48.615 48.613-48.615c3.289 0 6.585.335 9.794.996 1.203.248 2.414.374 3.599.374 6.176 0 10.994-3.396 12.889-9.084 6.874-20.631 25.573-34.493 46.531-34.493.639 0 1.375.05 2.153.103.866.059 1.848.125 2.879.134l.218.001c5.248 0 11.842-1.831 13.454-10.551.022-.118.041-.233.064-.342C164.122 33.901 189.847 15 219.361 15c37.007 0 67.113 30.107 67.113 67.114 0 6.352-.931 12.78-2.768 19.107-1.31 4.512-.305 7.757.769 9.685 2.326 4.178 6.496 5.342 8.277 5.839l.257.073c20.678 5.961 35.119 25.166 35.119 46.702 0 26.806-21.808 48.614-48.615 48.614z"/>
</svg>