<svg xmlns="http://www.w3.org/2000/svg" viewBox="0 0 439.048 439.048">
  <g fill="#fff">
    <path d="M405.642 315.677h-3.718c-1.65 0-3-1.35-3-3v-2.582c0-1.65-1.35-3-3-3h-6c-1.65 0-3 1.35-3 3v2.582c0 1.65-1.35 3-3 3h-28.658c-1.65 0-2.046-.955-.879-2.121l22.479-22.48c1.166-1.167 1.166-3.075 0-4.242l-4.242-4.242c-1.166-1.167-3.076-1.167-4.242 0l-22.48 22.479c-1.167 1.166-2.121.771-2.121-.879v-27.889c0-1.65 1.35-3 3-3h3.718c1.65 0 3-1.35 3-3v-6c0-1.65-1.35-3-3-3h-3.718c-1.65 0-3-1.35-3-3v-4.487c0-1.649-1.35-3-3-3h-6c-1.65 0-3 1.351-3 3v4.487c0 1.65-1.35 3-3 3h-4.439c-1.65 0-3 1.35-3 3v6c0 1.65 1.35 3 3 3h4.439c1.65 0 3 1.35 3 3v27.888c0 1.649-.954 2.046-2.121.879l-22.479-22.478c-1.167-1.167-3.075-1.167-4.242 0l-4.242 4.242c-1.167 1.167-1.167 3.075 0 4.242l22.479 22.48c1.166 1.166.771 2.121-.879 2.121H292.41c-1.65 0-3-1.35-3-3v-4.44c0-1.649-1.35-3-3-3h-6c-1.65 0-3 1.351-3 3v4.44c0 1.65-1.35 3-3 3h-4.486c-1.65 0-3 1.35-3 3v6c0 1.65 1.35 3 3 3h4.486c1.65 0 3 1.35 3 3v1.857c0 1.65 1.35 3 3 3h6c1.65 0 3-1.35 3-3v-1.857c0-1.65 1.35-3 3-3h27.888c1.65 0 2.046.955.879 2.121l-22.478 22.479c-1.167 1.166-1.167 3.076 0 4.242l4.242 4.242c1.167 1.166 3.075 1.166 4.242 0l22.479-22.478c1.167-1.166 2.121-.772 2.121.879v29.793c0 1.65-1.35 3-3 3h-4.439c-1.65 0-3 1.35-3 3v6c0 1.65 1.35 3 3 3h4.439c1.65 0 3 1.35 3 3v2.581c0 1.649 1.35 3 3 3h6c1.65 0 3-1.351 3-3v-2.581c0-1.65 1.35-3 3-3h3.718c1.65 0 3-1.35 3-3v-6c0-1.65-1.35-3-3-3h-3.718c-1.65 0-3-1.35-3-3v-29.794c0-1.649.954-2.046 2.121-.879l22.48 22.479c1.166 1.166 3.076 1.166 4.242 0l4.242-4.242c1.166-1.166 1.166-3.076 0-4.242l-22.479-22.479c-1.166-1.166-.771-2.121.879-2.121h28.657c1.65 0 3 1.35 3 3v3.716c0 1.65 1.35 3 3 3h6c1.65 0 3-1.35 3-3v-3.716c0-1.65 1.35-3 3-3h3.718c1.65 0 3-1.35 3-3v-6c-.001-1.65-1.35-3-3.001-3zm31.406-197.869h-2.77c-1.1 0-2-.9-2-2v-1.92c0-1.1-.9-2-2-2h-6c-1.1 0-2 .9-2 2v1.92c0 1.1-.9 2-2 2h-20.223c-1.1 0-1.363-.637-.586-1.414l16.317-16.317c.777-.777.777-2.051 0-2.828l-4.242-4.242c-.777-.777-2.051-.777-2.828 0l-16.317 16.317c-.777.777-1.414.514-1.414-.586V89.941c0-1.1.9-2 2-2h2.77c1.1 0 2-.9 2-2v-6c0-1.1-.9-2-2-2h-2.77c-1.1 0-2-.9-2-2v-4.196c0-1.101-.9-2-2-2h-6c-1.1 0-2 .899-2 2v4.196c0 1.1-.9 2-2 2h-3.312c-1.1 0-2 .9-2 2v6c0 1.1.9 2 2 2h3.312c1.1 0 2 .9 2 2v18.797c0 1.1-.637 1.363-1.414.586l-16.317-16.317c-.777-.777-2.051-.777-2.828 0l-4.242 4.242c-.777.777-.777 2.051 0 2.828l16.317 16.317c.777.777.514 1.414-.586 1.414h-18.797c-1.1 0-2-.9-2-2v-3.312c0-1.101-.9-2-2-2h-6c-1.1 0-2 .899-2 2v3.312c0 1.1-.9 2-2 2h-4.196c-1.1 0-2 .9-2 2v6c0 1.1.9 2 2 2h4.196c1.1 0 2 .9 2 2v2.771c0 1.101.9 2 2 2h6c1.1 0 2-.899 2-2v-2.771c0-1.1.9-2 2-2h18.797c1.1 0 1.363.637.586 1.414l-16.317 16.317c-.777.777-.777 2.051 0 2.828l4.242 4.242c.777.777 2.051.777 2.828 0l16.317-16.317c.777-.777 1.414-.514 1.414.586v20.224c0 1.101-.9 2-2 2h-3.312c-1.1 0-2 .899-2 2v6c0 1.101.9 2 2 2h3.312c1.1 0 2 .899 2 2v2.77c0 1.1.9 2 2 2h6c1.1 0 2-.9 2-2v-2.77c0-1.101.9-2 2-2h2.77c1.1 0 2-.899 2-2v-6c0-1.101-.9-2-2-2h-2.77c-1.1 0-2-.899-2-2v-20.224c0-1.1.637-1.363 1.414-.586l16.317 16.317c.777.777 2.051.777 2.828 0l4.242-4.242c.777-.777.777-2.051 0-2.828l-16.317-16.317c-.777-.777-.514-1.414.586-1.414h20.223c1.1 0 2 .9 2 2v2.771c0 1.101.9 2 2 2h6c1.1 0 2-.899 2-2v-2.771c0-1.1.9-2 2-2h2.77c1.1 0 2-.9 2-2v-6c0-1.099-.901-2-2-2zM58.634 177.823l104.684-.001c7.033-.093 13.003-1.354 13.083-1.371 35.611-8.058 59.408-41.534 55.354-77.868-1.733-15.545-9.418-29.484-21.636-39.249-12.218-9.766-27.506-14.188-43.053-12.453-12.754 1.422-24.19 7.727-32.203 17.752s-11.642 22.57-10.219 35.325c2.425 21.722 22.064 37.427 43.787 34.995 8.736-.975 16.57-5.293 22.059-12.159s7.975-15.459 6.999-24.194c-1.683-15.086-15.333-25.989-30.41-24.307-3.293.367-5.665 3.334-5.298 6.628s3.341 5.67 6.628 5.298c8.499-.941 16.204 5.202 17.154 13.712.619 5.55-.96 11.009-4.447 15.371s-8.464 7.106-14.016 7.726c-15.145 1.684-28.84-9.257-30.53-24.4-1.067-9.568 1.655-18.98 7.667-26.502 6.011-7.521 14.591-12.251 24.16-13.318 12.357-1.38 24.516 2.137 34.229 9.901 9.714 7.764 15.823 18.846 17.202 31.205 3.376 30.254-16.433 58.126-46.026 64.822-.048.011-4.936 1.013-10.564 1.088H58.634c-3.313 0-6 2.687-6 6 0 3.312 2.686 5.999 6 5.999zm117.744 60.44c-.058-.013-6.033-1.275-13.141-1.367H6c-3.313 0-6 2.687-6 6 0 3.314 2.687 6 6 6l157.158-.001c5.704.075 10.592 1.078 10.594 1.078 29.644 6.706 49.452 34.578 46.076 64.833-1.379 12.359-7.488 23.441-17.202 31.205-9.715 7.765-21.874 11.279-34.23 9.901-19.752-2.203-34.029-20.066-31.826-39.819.819-7.337 4.445-13.915 10.212-18.524 5.768-4.609 12.984-6.689 20.319-5.877 5.551.619 10.527 3.362 14.015 7.726 3.487 4.362 5.066 9.821 4.447 15.372-.949 8.508-8.638 14.653-17.155 13.711-3.285-.373-6.26 2.004-6.627 5.299-.367 3.293 2.005 6.26 5.299 6.627 15.097 1.687 28.727-9.224 30.409-24.306.976-8.736-1.511-17.329-6.999-24.195-5.489-6.867-13.323-11.186-22.058-12.159-10.524-1.176-20.871 1.818-29.143 8.43-8.27 6.609-13.472 16.044-14.646 26.566-1.423 12.754 2.206 25.299 10.219 35.324 8.013 10.024 19.449 16.329 32.203 17.752 2.211.247 4.415.369 6.608.369 13.222-.001 25.964-4.446 36.444-12.822 12.218-9.765 19.902-23.704 21.636-39.249 4.056-36.336-19.741-69.812-55.375-77.874z"/>
    <path d="M315.656 158.283c-2.718-24.363-24.744-41.974-49.116-39.257-20.148 2.25-34.711 20.472-32.463 40.619.906 8.127 4.924 15.415 11.311 20.52 6.389 5.105 14.382 7.418 22.509 6.511 14.078-1.571 24.255-14.303 22.685-28.383-1.331-11.919-12.104-20.526-24.031-19.206-3.294.367-5.665 3.335-5.298 6.628.367 3.294 3.346 5.669 6.628 5.298 5.362-.599 10.178 3.268 10.775 8.611.836 7.503-4.587 14.289-12.089 15.126-4.942.549-9.802-.854-13.686-3.959-3.884-3.105-6.327-7.535-6.878-12.477-1.514-13.572 8.297-25.848 21.868-27.363 17.787-1.975 33.874 10.874 35.859 28.661 2.38 21.325-11.581 40.97-32.425 45.685-.033.008-3.478.709-7.389.76H138.474c-3.314 0-6 2.686-6 6 0 3.313 2.686 6 6 6l125.521-.001c5.383-.069 9.869-1.034 9.91-1.043 26.861-6.076 44.81-31.325 41.751-58.73z"/>
  </g>
</svg>