<?xml version="1.0" encoding="iso-8859-1"?>
<!-- Generator: Adobe Illustrator 17.1.0, SVG Export Plug-In . SVG Version: 6.00 Build 0)  -->
<!DOCTYPE svg PUBLIC "-//W3C//DTD SVG 1.1//EN" "http://www.w3.org/Graphics/SVG/1.1/DTD/svg11.dtd">
<svg version="1.1" id="Capa_1" xmlns="http://www.w3.org/2000/svg" xmlns:xlink="http://www.w3.org/1999/xlink" x="0px" y="0px"
	 viewBox="0 0 439.048 439.048" style="background:black;" xml:space="preserve">
<g>
	<path fill="white" d="M405.642,315.677h-3.718c-1.65,0-3-1.35-3-3v-2.582c0-1.65-1.35-3-3-3h-6c-1.65,0-3,1.35-3,3v2.582c0,1.65-1.35,3-3,3
		h-28.658c-1.65,0-2.046-0.955-0.879-2.121l22.479-22.48c1.166-1.167,1.166-3.075,0-4.242l-4.242-4.242
		c-1.166-1.167-3.076-1.167-4.242,0l-22.48,22.479c-1.167,1.166-2.121,0.771-2.121-0.879v-27.889c0-1.65,1.35-3,3-3h3.718
		c1.65,0,3-1.35,3-3v-6c0-1.65-1.35-3-3-3h-3.718c-1.65,0-3-1.35-3-3v-4.487c0-1.649-1.35-3-3-3h-6c-1.65,0-3,1.351-3,3v4.487
		c0,1.65-1.35,3-3,3h-4.439c-1.65,0-3,1.35-3,3v6c0,1.65,1.35,3,3,3h4.439c1.65,0,3,1.35,3,3v27.888
		c0,1.649-0.954,2.046-2.121,0.879l-22.479-22.478c-1.167-1.167-3.075-1.167-4.242,0l-4.242,4.242c-1.167,1.167-1.167,3.075,0,4.242
		l22.479,22.48c1.166,1.166,0.771,2.121-0.879,2.121H292.41c-1.65,0-3-1.35-3-3v-4.44c0-1.649-1.35-3-3-3h-6c-1.65,0-3,1.351-3,3
		v4.44c0,1.65-1.35,3-3,3h-4.486c-1.65,0-3,1.35-3,3v6c0,1.65,1.35,3,3,3h4.486c1.65,0,3,1.35,3,3v1.857c0,1.65,1.35,3,3,3h6
		c1.65,0,3-1.35,3-3v-1.857c0-1.65,1.35-3,3-3h27.888c1.65,0,2.046,0.955,0.879,2.121l-22.478,22.479
		c-1.167,1.166-1.167,3.076,0,4.242l4.242,4.242c1.167,1.166,3.075,1.166,4.242,0l22.479-22.478
		c1.167-1.166,2.121-0.772,2.121,0.879v29.793c0,1.65-1.35,3-3,3h-4.439c-1.65,0-3,1.35-3,3v6c0,1.65,1.35,3,3,3h4.439
		c1.65,0,3,1.35,3,3v2.581c0,1.649,1.35,3,3,3h6c1.65,0,3-1.351,3-3v-2.581c0-1.65,1.35-3,3-3h3.718c1.65,0,3-1.35,3-3v-6
		c0-1.65-1.35-3-3-3h-3.718c-1.65,0-3-1.35-3-3v-29.794c0-1.649,0.954-2.046,2.121-0.879l22.48,22.479
		c1.166,1.166,3.076,1.166,4.242,0l4.242-4.242c1.166-1.166,1.166-3.076,0-4.242l-22.479-22.479
		c-1.166-1.166-0.771-2.121,0.879-2.121h28.657c1.65,0,3,1.35,3,3v3.716c0,1.65,1.35,3,3,3h6c1.65,0,3-1.35,3-3v-3.716
		c0-1.65,1.35-3,3-3h3.718c1.65,0,3-1.35,3-3v-6C408.642,317.027,407.293,315.677,405.642,315.677z"/>
	<path fill="white" d="M437.048,117.808h-2.77c-1.1,0-2-0.9-2-2v-1.92c0-1.1-0.9-2-2-2h-6c-1.1,0-2,0.9-2,2v1.92c0,1.1-0.9,2-2,2h-20.223
		c-1.1,0-1.363-0.637-0.586-1.414l16.317-16.317c0.777-0.777,0.777-2.051,0-2.828l-4.242-4.242c-0.777-0.777-2.051-0.777-2.828,0
		l-16.317,16.317c-0.777,0.777-1.414,0.514-1.414-0.586V89.941c0-1.1,0.9-2,2-2h2.77c1.1,0,2-0.9,2-2v-6c0-1.1-0.9-2-2-2h-2.77
		c-1.1,0-2-0.9-2-2v-4.196c0-1.101-0.9-2-2-2h-6c-1.1,0-2,0.899-2,2v4.196c0,1.1-0.9,2-2,2h-3.312c-1.1,0-2,0.9-2,2v6
		c0,1.1,0.9,2,2,2h3.312c1.1,0,2,0.9,2,2v18.797c0,1.1-0.637,1.363-1.414,0.586l-16.317-16.317c-0.777-0.777-2.051-0.777-2.828,0
		l-4.242,4.242c-0.777,0.777-0.777,2.051,0,2.828l16.317,16.317c0.777,0.777,0.514,1.414-0.586,1.414h-18.797c-1.1,0-2-0.9-2-2
		v-3.312c0-1.101-0.9-2-2-2h-6c-1.1,0-2,0.899-2,2v3.312c0,1.1-0.9,2-2,2h-4.196c-1.1,0-2,0.9-2,2v6c0,1.1,0.9,2,2,2h4.196
		c1.1,0,2,0.9,2,2v2.771c0,1.101,0.9,2,2,2h6c1.1,0,2-0.899,2-2v-2.771c0-1.1,0.9-2,2-2h18.797c1.1,0,1.363,0.637,0.586,1.414
		l-16.317,16.317c-0.777,0.777-0.777,2.051,0,2.828l4.242,4.242c0.777,0.777,2.051,0.777,2.828,0l16.317-16.317
		c0.777-0.777,1.414-0.514,1.414,0.586v20.224c0,1.101-0.9,2-2,2h-3.312c-1.1,0-2,0.899-2,2v6c0,1.101,0.9,2,2,2h3.312
		c1.1,0,2,0.899,2,2v2.77c0,1.1,0.9,2,2,2h6c1.1,0,2-0.9,2-2v-2.77c0-1.101,0.9-2,2-2h2.77c1.1,0,2-0.899,2-2v-6c0-1.101-0.9-2-2-2
		h-2.77c-1.1,0-2-0.899-2-2v-20.224c0-1.1,0.637-1.363,1.414-0.586l16.317,16.317c0.777,0.777,2.051,0.777,2.828,0l4.242-4.242
		c0.777-0.777,0.777-2.051,0-2.828l-16.317-16.317c-0.777-0.777-0.514-1.414,0.586-1.414h20.223c1.1,0,2,0.9,2,2v2.771
		c0,1.101,0.9,2,2,2h6c1.1,0,2-0.899,2-2v-2.771c0-1.1,0.9-2,2-2h2.77c1.1,0,2-0.9,2-2v-6
		C439.048,118.709,438.147,117.808,437.048,117.808z"/>
	<path fill="white" d="M58.634,177.823l104.684-0.001c7.033-0.093,13.003-1.354,13.083-1.371c35.611-8.058,59.408-41.534,55.354-77.868
		c-1.733-15.545-9.418-29.484-21.636-39.249c-12.218-9.766-27.506-14.188-43.053-12.453c-12.754,1.422-24.19,7.727-32.203,17.752
		s-11.642,22.57-10.219,35.325c2.425,21.722,22.064,37.427,43.787,34.995c8.736-0.975,16.57-5.293,22.059-12.159
		s7.975-15.459,6.999-24.194c-1.683-15.086-15.333-25.989-30.41-24.307c-3.293,0.367-5.665,3.334-5.298,6.628
		c0.367,3.294,3.341,5.67,6.628,5.298c8.499-0.941,16.204,5.202,17.154,13.712c0.619,5.55-0.96,11.009-4.447,15.371
		c-3.487,4.362-8.464,7.106-14.016,7.726c-15.145,1.684-28.84-9.257-30.53-24.4c-1.067-9.568,1.655-18.98,7.667-26.502
		c6.011-7.521,14.591-12.251,24.16-13.318c12.357-1.38,24.516,2.137,34.229,9.901c9.714,7.764,15.823,18.846,17.202,31.205
		c3.376,30.254-16.433,58.126-46.026,64.822c-0.048,0.011-4.936,1.013-10.564,1.088H58.634c-3.313,0-6,2.687-6,6
		C52.634,175.136,55.32,177.823,58.634,177.823z"/>
	<path fill="white" d="M176.378,238.263c-0.058-0.013-6.033-1.275-13.141-1.367H6c-3.313,0-6,2.687-6,6c0,3.314,2.687,6,6,6l157.158-0.001
		c5.704,0.075,10.592,1.078,10.594,1.078c29.644,6.706,49.452,34.578,46.076,64.833c-1.379,12.359-7.488,23.441-17.202,31.205
		c-9.715,7.765-21.874,11.279-34.23,9.901c-19.752-2.203-34.029-20.066-31.826-39.819c0.819-7.337,4.445-13.915,10.212-18.524
		c5.768-4.609,12.984-6.689,20.319-5.877c5.551,0.619,10.527,3.362,14.015,7.726c3.487,4.362,5.066,9.821,4.447,15.372
		c-0.949,8.508-8.638,14.653-17.155,13.711c-3.285-0.373-6.26,2.004-6.627,5.299c-0.367,3.293,2.005,6.26,5.299,6.627
		c15.097,1.687,28.727-9.224,30.409-24.306c0.976-8.736-1.511-17.329-6.999-24.195c-5.489-6.867-13.323-11.186-22.058-12.159
		c-10.524-1.176-20.871,1.818-29.143,8.43c-8.27,6.609-13.472,16.044-14.646,26.566c-1.423,12.754,2.206,25.299,10.219,35.324
		c8.013,10.024,19.449,16.329,32.203,17.752c2.211,0.247,4.415,0.369,6.608,0.369c13.222-0.001,25.964-4.446,36.444-12.822
		c12.218-9.765,19.902-23.704,21.636-39.249C235.809,279.801,212.012,246.325,176.378,238.263z"/>
	<path fill="white" d="M315.656,158.283c-2.718-24.363-24.744-41.974-49.116-39.257c-20.148,2.25-34.711,20.472-32.463,40.619
		c0.906,8.127,4.924,15.415,11.311,20.52c6.389,5.105,14.382,7.418,22.509,6.511c14.078-1.571,24.255-14.303,22.685-28.383
		c-1.331-11.919-12.104-20.526-24.031-19.206c-3.294,0.367-5.665,3.335-5.298,6.628c0.367,3.294,3.346,5.669,6.628,5.298
		c5.362-0.599,10.178,3.268,10.775,8.611c0.836,7.503-4.587,14.289-12.089,15.126c-4.942,0.549-9.802-0.854-13.686-3.959
		c-3.884-3.105-6.327-7.535-6.878-12.477c-1.514-13.572,8.297-25.848,21.868-27.363c17.787-1.975,33.874,10.874,35.859,28.661
		c2.38,21.325-11.581,40.97-32.425,45.685c-0.033,0.008-3.478,0.709-7.389,0.76H138.474c-3.314,0-6,2.686-6,6c0,3.313,2.686,6,6,6
		l125.521-0.001c5.383-0.069,9.869-1.034,9.91-1.043C300.766,210.937,318.715,185.688,315.656,158.283z"/>
</g>
<g>
</g>
<g>
</g>
<g>
</g>
<g>
</g>
<g>
</g>
<g>
</g>
<g>
</g>
<g>
</g>
<g>
</g>
<g>
</g>
<g>
</g>
<g>
</g>
<g>
</g>
<g>
</g>
<g>
</g>
</svg>
