<svg xmlns="http://www.w3.org/2000/svg" width="439.457" height="439.457">
  <path fill="#fff" d="M343.094 83.019c-9.23 0-18.293 1.298-27.057 3.868-7.137-14.227-17.672-26.446-30.859-35.701-16.246-11.399-35.355-17.425-55.266-17.425-5.688 0-11.41.515-17.067 1.533-22.869-16.976-50.905-26.275-79.481-26.275C59.827 9.019 0 68.846 0 142.383s59.828 133.365 133.365 133.365h209.729c53.137 0 96.363-43.229 96.363-96.363 0-53.136-43.228-96.366-96.363-96.366zm0 172.729H133.365c-62.509 0-113.364-50.854-113.364-113.363S70.855 29.02 133.365 29.02c26.014 0 50.481 8.575 70.757 24.798 2.389 1.911 5.521 2.624 8.502 1.935 5.707-1.321 11.522-1.991 17.288-1.991 31.463 0 60.141 19.756 71.357 49.161.959 2.513 2.889 4.534 5.354 5.606 2.469 1.072 5.262 1.106 7.754.094 9.15-3.718 18.812-5.603 28.715-5.603 42.107 0 76.363 34.257 76.363 76.364 0 42.106-34.254 76.364-76.361 76.364zm-144.397 64.684c-1.38-2.392-4.439-3.21-6.83-1.83l-4.705 2.716.901-3.363c.715-2.666-.868-5.408-3.536-6.123-2.667-.717-5.409.867-6.124 3.535l-3.489 13.021-8.843 5.105c-2.603-2.676-5.93-4.627-9.66-5.569v-10.22l9.532-9.533c1.953-1.952 1.953-5.118 0-7.07s-5.118-1.952-7.071 0l-2.461 2.461v-5.432c0-2.76-2.239-5-5-5s-5 2.24-5 5v5.433l-2.461-2.461c-1.953-1.952-5.118-1.952-7.071 0-1.953 1.953-1.953 5.119 0 7.071l9.533 9.533v10.219c-3.73.941-7.057 2.894-9.66 5.568l-8.843-5.104-3.489-13.022c-.715-2.666-3.458-4.252-6.124-3.535-2.667.715-4.25 3.457-3.536 6.123l.901 3.363-4.705-2.716c-2.392-1.381-5.45-.562-6.83 1.83-1.381 2.392-.562 5.45 1.83 6.83l4.704 2.716-3.362.9c-2.667.716-4.25 3.457-3.536 6.125.599 2.233 2.619 3.707 4.827 3.707.428 0 .864-.056 1.297-.172l13.021-3.488 8.829 5.097c-.51 1.786-.801 3.664-.801 5.61 0 1.932.287 3.795.789 5.566l-8.817 5.092-13.022-3.489c-2.668-.714-5.409.868-6.124 3.536-.715 2.666.869 5.408 3.536 6.124l3.362.9-4.704 2.716c-2.392 1.382-3.211 4.438-1.83 6.83.926 1.604 2.606 2.501 4.335 2.501.848 0 1.708-.216 2.495-.671l4.705-2.716-.901 3.363c-.715 2.667.868 5.409 3.536 6.124.434.116.869.172 1.297.172 2.208 0 4.228-1.475 4.827-3.708l3.489-13.021 8.812-5.088c2.607 2.692 5.945 4.657 9.69 5.604v10.168l-9.533 9.532c-1.953 1.952-1.953 5.118 0 7.07s5.118 1.953 7.071 0l2.462-2.461v5.433c0 2.762 2.239 5 5 5 2.762 0 5-2.239 5-5v-5.433l2.461 2.461c.977.977 2.256 1.464 3.536 1.464 1.279 0 2.559-.487 3.536-1.464 1.953-1.953 1.953-5.119 0-7.07l-9.533-9.533v-10.167c3.746-.945 7.083-2.911 9.691-5.603l8.813 5.087 3.489 13.021c.599 2.234 2.619 3.708 4.827 3.708.428 0 .864-.056 1.297-.172 2.667-.715 4.25-3.457 3.536-6.124l-.901-3.362 4.704 2.716c.788.455 1.647.671 2.495.671 1.728 0 3.409-.896 4.335-2.501 1.381-2.392.562-5.448-1.83-6.83l-4.705-2.716 3.363-.9c2.667-.715 4.25-3.457 3.536-6.125-.715-2.666-3.458-4.252-6.124-3.535l-13.022 3.49-8.816-5.09c.502-1.773.789-3.636.789-5.567 0-1.948-.291-3.826-.801-5.611l8.828-5.097 13.022 3.488c.433.117.869.172 1.297.172 2.208 0 4.228-1.473 4.827-3.707.715-2.668-.868-5.409-3.536-6.125l-3.363-.9 4.705-2.716c2.393-1.384 3.212-4.44 1.831-6.832zm-47.285 37.802c-5.776 0-10.475-4.699-10.475-10.477 0-5.776 4.699-10.475 10.475-10.475s10.475 4.698 10.475 10.475c0 5.778-4.699 10.477-10.475 10.477zm191.631-9.697c-1.381-2.391-4.439-3.213-6.83-1.83l-4.705 2.717.9-3.362c.715-2.667-.865-5.409-3.535-6.124-2.668-.717-5.408.868-6.123 3.535l-3.49 13.021-8.842 5.105c-2.604-2.675-5.93-4.627-9.66-5.568V345.81l9.531-9.532c1.953-1.952 1.953-5.118 0-7.071-1.949-1.951-5.117-1.951-7.068 0l-2.463 2.463v-5.433c0-2.761-2.238-5-5-5s-5 2.239-5 5v5.431l-2.459-2.459c-1.953-1.953-5.121-1.953-7.072 0-1.953 1.953-1.953 5.117 0 7.07l9.531 9.533v10.219c-3.73.942-7.057 2.895-9.66 5.569l-8.842-5.104-3.49-13.021c-.715-2.667-3.451-4.252-6.123-3.536-2.668.715-4.25 3.457-3.537 6.124l.901 3.361-4.704-2.715c-2.394-1.383-5.451-.562-6.83 1.83-1.381 2.392-.562 5.448 1.83 6.83l4.705 2.715-3.361.901c-2.668.716-4.25 3.457-3.537 6.124.6 2.234 2.619 3.707 4.828 3.707.428 0 .863-.056 1.297-.172l13.021-3.49 8.829 5.099c-.51 1.785-.801 3.663-.801 5.61 0 1.932.287 3.793.789 5.565l-8.818 5.091-13.021-3.489c-2.666-.716-5.408.868-6.123 3.536-.715 2.667.867 5.409 3.535 6.124l3.361.901-4.703 2.716c-2.393 1.381-3.212 4.438-1.83 6.83.926 1.604 2.605 2.501 4.334 2.501.848 0 1.709-.216 2.496-.671l4.704-2.716-.901 3.361c-.713 2.667.869 5.409 3.537 6.124.434.116.867.172 1.297.172 2.207 0 4.229-1.474 4.826-3.707l3.49-13.022 8.811-5.086c2.607 2.69 5.945 4.656 9.691 5.603v10.168l-9.533 9.533c-1.951 1.953-1.951 5.118.002 7.071.977.976 2.256 1.464 3.535 1.464 1.277 0 2.559-.488 3.535-1.465l2.461-2.461v5.432c0 2.762 2.238 5 5 5s5-2.239 5-5v-5.433l2.463 2.462c1.951 1.952 5.119 1.952 7.068 0 1.953-1.953 1.953-5.119 0-7.071l-9.531-9.533v-10.167c3.744-.945 7.084-2.911 9.689-5.603l8.812 5.087 3.49 13.021c.598 2.234 2.617 3.708 4.826 3.708.428 0 .863-.056 1.297-.172 2.668-.715 4.25-3.457 3.535-6.124l-.9-3.362 4.705 2.716c.787.455 1.646.671 2.494.671 1.729 0 3.408-.897 4.336-2.501 1.381-2.393.561-5.449-1.83-6.83l-4.705-2.716 3.361-.901c2.668-.715 4.25-3.457 3.537-6.124-.715-2.667-3.453-4.25-6.125-3.536l-13.02 3.489-8.818-5.091c.502-1.772.789-3.636.789-5.566 0-1.948-.289-3.826-.801-5.61l8.83-5.099 13.02 3.489c.436.116.869.172 1.297.172 2.209 0 4.23-1.474 4.828-3.708.713-2.667-.869-5.409-3.537-6.124l-3.361-.9 4.705-2.717c2.392-1.379 3.211-4.437 1.83-6.828zm-47.285 37.8c-5.775 0-10.475-4.699-10.475-10.476 0-5.775 4.699-10.476 10.475-10.476s10.477 4.699 10.477 10.476c-.001 5.778-4.7 10.476-10.477 10.476z"/>
</svg>