<?xml version="1.0" encoding="iso-8859-1"?>
<!-- Generator: Adobe Illustrator 16.0.0, SVG Export Plug-In . SVG Version: 6.00 Build 0)  -->
<!DOCTYPE svg PUBLIC "-//W3C//DTD SVG 1.1//EN" "http://www.w3.org/Graphics/SVG/1.1/DTD/svg11.dtd">
<svg version="1.1" id="Capa_1" xmlns="http://www.w3.org/2000/svg" xmlns:xlink="http://www.w3.org/1999/xlink" x="0px" y="0px"
	 width="439.457px" height="439.457px" viewBox="0 0 439.457 439.457" style="enable-background:new 0 0 439.457 439.457;"
	 xml:space="preserve">
<g>
	<g id="Layer_3_27_">
		<g>
			<path fill="white" d="M343.094,83.019c-9.23,0-18.293,1.298-27.057,3.868c-7.137-14.227-17.672-26.446-30.859-35.701
				c-16.246-11.399-35.355-17.425-55.266-17.425c-5.688,0-11.41,0.515-17.067,1.533C189.976,18.318,161.94,9.019,133.364,9.019
				C59.827,9.019,0,68.846,0,142.383c0,73.537,59.828,133.365,133.365,133.365h209.729c53.137,0,96.363-43.229,96.363-96.363
				C439.457,126.249,396.229,83.019,343.094,83.019z M343.094,255.748H133.365c-62.509,0-113.364-50.854-113.364-113.363
				c0-62.509,50.854-113.365,113.364-113.365c26.014,0,50.481,8.575,70.757,24.798c2.389,1.911,5.521,2.624,8.502,1.935
				c5.707-1.321,11.522-1.991,17.288-1.991c31.463,0,60.141,19.756,71.357,49.161c0.959,2.513,2.889,4.534,5.354,5.606
				c2.469,1.072,5.262,1.106,7.754,0.094c9.15-3.718,18.812-5.603,28.715-5.603c42.107,0,76.363,34.257,76.363,76.364
				C419.455,221.49,385.201,255.748,343.094,255.748z"/>
			<path fill="white" d="M198.697,320.432c-1.38-2.392-4.439-3.21-6.83-1.83l-4.705,2.716l0.901-3.363c0.715-2.666-0.868-5.408-3.536-6.123
				c-2.667-0.717-5.409,0.867-6.124,3.535l-3.489,13.021l-8.843,5.105c-2.603-2.676-5.93-4.627-9.66-5.569v-10.22l9.532-9.533
				c1.953-1.952,1.953-5.118,0-7.07c-1.953-1.952-5.118-1.952-7.071,0l-2.461,2.461v-5.432c0-2.76-2.239-5-5-5c-2.761,0-5,2.24-5,5
				v5.433l-2.461-2.461c-1.953-1.952-5.118-1.952-7.071,0c-1.953,1.953-1.953,5.119,0,7.071l9.533,9.533v10.219
				c-3.73,0.941-7.057,2.894-9.66,5.568l-8.843-5.104l-3.489-13.022c-0.715-2.666-3.458-4.252-6.124-3.535
				c-2.667,0.715-4.25,3.457-3.536,6.123l0.901,3.363l-4.705-2.716c-2.392-1.381-5.45-0.562-6.83,1.83
				c-1.381,2.392-0.562,5.45,1.83,6.83l4.704,2.716l-3.362,0.9c-2.667,0.716-4.25,3.457-3.536,6.125
				c0.599,2.233,2.619,3.707,4.827,3.707c0.428,0,0.864-0.056,1.297-0.172l13.021-3.488l8.829,5.097
				c-0.51,1.786-0.801,3.664-0.801,5.61c0,1.932,0.287,3.795,0.789,5.566l-8.817,5.092l-13.022-3.489
				c-2.668-0.714-5.409,0.868-6.124,3.536c-0.715,2.666,0.869,5.408,3.536,6.124l3.362,0.9l-4.704,2.716
				c-2.392,1.382-3.211,4.438-1.83,6.83c0.926,1.604,2.606,2.501,4.335,2.501c0.848,0,1.708-0.216,2.495-0.671l4.705-2.716
				l-0.901,3.363c-0.715,2.667,0.868,5.409,3.536,6.124c0.434,0.116,0.869,0.172,1.297,0.172c2.208,0,4.228-1.475,4.827-3.708
				l3.489-13.021l8.812-5.088c2.607,2.692,5.945,4.657,9.69,5.604v10.168l-9.533,9.532c-1.953,1.952-1.953,5.118,0,7.07
				s5.118,1.953,7.071,0l2.462-2.461v5.433c0,2.762,2.239,5,5,5c2.762,0,5-2.239,5-5v-5.433l2.461,2.461
				c0.977,0.977,2.256,1.464,3.536,1.464c1.279,0,2.559-0.487,3.536-1.464c1.953-1.953,1.953-5.119,0-7.07l-9.533-9.533v-10.167
				c3.746-0.945,7.083-2.911,9.691-5.603l8.813,5.087l3.489,13.021c0.599,2.234,2.619,3.708,4.827,3.708
				c0.428,0,0.864-0.056,1.297-0.172c2.667-0.715,4.25-3.457,3.536-6.124l-0.901-3.362l4.704,2.716
				c0.788,0.455,1.647,0.671,2.495,0.671c1.728,0,3.409-0.896,4.335-2.501c1.381-2.392,0.562-5.448-1.83-6.83l-4.705-2.716
				l3.363-0.9c2.667-0.715,4.25-3.457,3.536-6.125c-0.715-2.666-3.458-4.252-6.124-3.535l-13.022,3.49l-8.816-5.09
				c0.502-1.773,0.789-3.636,0.789-5.567c0-1.948-0.291-3.826-0.801-5.611l8.828-5.097l13.022,3.488
				c0.433,0.117,0.869,0.172,1.297,0.172c2.208,0,4.228-1.473,4.827-3.707c0.715-2.668-0.868-5.409-3.536-6.125l-3.363-0.9
				l4.705-2.716C199.259,325.88,200.078,322.824,198.697,320.432z M151.412,358.234c-5.776,0-10.475-4.699-10.475-10.477
				c0-5.776,4.699-10.475,10.475-10.475s10.475,4.698,10.475,10.475C161.887,353.535,157.188,358.234,151.412,358.234z"/>
			<path fill="white" d="M343.043,348.537c-1.381-2.391-4.439-3.213-6.83-1.83l-4.705,2.717l0.9-3.362c0.715-2.667-0.865-5.409-3.535-6.124
				c-2.668-0.717-5.408,0.868-6.123,3.535l-3.49,13.021l-8.842,5.105c-2.604-2.675-5.93-4.627-9.66-5.568V345.81l9.531-9.532
				c1.953-1.952,1.953-5.118,0-7.071c-1.949-1.951-5.117-1.951-7.068,0l-2.463,2.463v-5.433c0-2.761-2.238-5-5-5s-5,2.239-5,5v5.431
				l-2.459-2.459c-1.953-1.953-5.121-1.953-7.072,0c-1.953,1.953-1.953,5.117,0,7.07l9.531,9.533v10.219
				c-3.73,0.942-7.057,2.895-9.66,5.569l-8.842-5.104l-3.49-13.021c-0.715-2.667-3.451-4.252-6.123-3.536
				c-2.668,0.715-4.25,3.457-3.537,6.124l0.901,3.361l-4.704-2.715c-2.394-1.383-5.451-0.562-6.83,1.83
				c-1.381,2.392-0.562,5.448,1.83,6.83l4.705,2.715l-3.361,0.901c-2.668,0.716-4.25,3.457-3.537,6.124
				c0.6,2.234,2.619,3.707,4.828,3.707c0.428,0,0.863-0.056,1.297-0.172l13.021-3.49l8.829,5.099
				c-0.51,1.785-0.801,3.663-0.801,5.61c0,1.932,0.287,3.793,0.789,5.565l-8.818,5.091l-13.021-3.489
				c-2.666-0.716-5.408,0.868-6.123,3.536c-0.715,2.667,0.867,5.409,3.535,6.124l3.361,0.901l-4.703,2.716
				c-2.393,1.381-3.212,4.438-1.83,6.83c0.926,1.604,2.605,2.501,4.334,2.501c0.848,0,1.709-0.216,2.496-0.671l4.704-2.716
				l-0.901,3.361c-0.713,2.667,0.869,5.409,3.537,6.124c0.434,0.116,0.867,0.172,1.297,0.172c2.207,0,4.229-1.474,4.826-3.707
				l3.49-13.022l8.811-5.086c2.607,2.69,5.945,4.656,9.691,5.603v10.168l-9.533,9.533c-1.951,1.953-1.951,5.118,0.002,7.071
				c0.977,0.976,2.256,1.464,3.535,1.464c1.277,0,2.559-0.488,3.535-1.465l2.461-2.461v5.432c0,2.762,2.238,5,5,5s5-2.239,5-5
				v-5.433l2.463,2.462c1.951,1.952,5.119,1.952,7.068,0c1.953-1.953,1.953-5.119,0-7.071l-9.531-9.533v-10.167
				c3.744-0.945,7.084-2.911,9.689-5.603l8.812,5.087l3.49,13.021c0.598,2.234,2.617,3.708,4.826,3.708
				c0.428,0,0.863-0.056,1.297-0.172c2.668-0.715,4.25-3.457,3.535-6.124l-0.9-3.362l4.705,2.716
				c0.787,0.455,1.646,0.671,2.494,0.671c1.729,0,3.408-0.897,4.336-2.501c1.381-2.393,0.561-5.449-1.83-6.83l-4.705-2.716
				l3.361-0.901c2.668-0.715,4.25-3.457,3.537-6.124c-0.715-2.667-3.453-4.25-6.125-3.536l-13.02,3.489l-8.818-5.091
				c0.502-1.772,0.789-3.636,0.789-5.566c0-1.948-0.289-3.826-0.801-5.61l8.83-5.099l13.02,3.489
				c0.436,0.116,0.869,0.172,1.297,0.172c2.209,0,4.23-1.474,4.828-3.708c0.713-2.667-0.869-5.409-3.537-6.124l-3.361-0.9
				l4.705-2.717C343.605,353.986,344.424,350.928,343.043,348.537z M295.758,386.337c-5.775,0-10.475-4.699-10.475-10.476
				c0-5.775,4.699-10.476,10.475-10.476s10.477,4.699,10.477,10.476C306.234,381.639,301.535,386.337,295.758,386.337z"/>
		</g>
	</g>
</g>
<g>
</g>
<g>
</g>
<g>
</g>
<g>
</g>
<g>
</g>
<g>
</g>
<g>
</g>
<g>
</g>
<g>
</g>
<g>
</g>
<g>
</g>
<g>
</g>
<g>
</g>
<g>
</g>
<g>
</g>
</svg>
