<svg xmlns="http://www.w3.org/2000/svg" width="516.4" height="516.4">
  <g fill="#fff">
    <path d="M382.5 306.101H114.7v19.1h267.8c11.5 0 19.1 7.6 19.1 19.1S394 363.4 382.5 363.4s-19.1-7.601-19.1-19.101h-19.1c0 21 17.199 38.2 38.199 38.2s38.199-17.2 38.199-38.2-17.198-38.198-38.198-38.198zM344.199 191.3c0-32.5-24.898-57.4-57.398-57.4S229.4 158.8 229.4 191.3h19.2c0-21 17.201-38.2 38.201-38.2S325 170.3 325 191.3s-17.199 38.2-38.199 38.2H57.4v19.2h229.5c32.5 0 57.299-24.9 57.299-57.4z"/>
    <path d="M439.801 133.9c-42.102 0-76.5 34.4-76.5 76.5h19.1c0-32.5 24.9-57.4 57.4-57.4s57.398 24.9 57.398 57.4-24.898 57.4-57.398 57.4H0v19.1h439.9c42.1 0 76.5-34.4 76.5-76.5s-34.5-76.5-76.599-76.5z"/>
  </g>
</svg>