<svg xmlns="http://www.w3.org/2000/svg" width="614.719" height="614.719">
  <path fill="#fff" d="M402.643 151.788l51.103-51.109c6.015-6.028 6.31-16.224-.603-23.149-6.016-5.964-17.007-6.477-23.445 0l-50.5 51.109c-6.438 6.541-6.912 16.224 0 23.15 6.912 6.924 16.531 6.924 23.445-.001zm-136.764-46.556c9.317 0 16.833-7.567 16.833-16.865V16.544C282.712 7.182 275.197 0 265.879 0c-9.318 0-16.532 7.182-16.532 16.544v71.822c-.006 9.299 7.208 16.866 16.532 16.866zm-135.872 46.556c6.958 6.861 16.77 7.118 23.445 0 6.259-6.669 6.015-17.122 0-23.15L102.35 77.529c-6.015-5.964-16.532-5.964-23.445 0-6.913 7.246-6.816 17.058 0 23.791l51.102 50.468zM17.888 281.965l72.143-.898c9.318-.128 16.532-7.246 16.532-16.545 0-9.298-7.214-16.544-16.532-16.544H17.888c-9.317.898-16.532 7.823-16.532 17.122 0 8.721 7.215 16.993 16.532 16.865zm576.834 111.773c-12.325-22.509-28.857-40.528-49.897-54.059-5.111-38.22-20.533-70.54-45.991-97.409-29.852-31.486-70.341-48.993-113.325-48.993h-12.325c-11.723-17.442-27.35-31.294-46.293-41.49-18.937-10.196-39.079-15.327-61.023-15.327-35.468 0-65.903 12.569-91.079 37.579-25.022 24.881-37.572 55.021-37.572 90.483 0 13.531 6.015 33.987 18.033 61.625-17.135 14.108-29.46 32.448-36.373 54.7h-6.9c-30.357 0-56.508 11.415-78.151 34.244-21.643 22.893-32.467 50.531-32.467 82.659 0 28.856 8.862 53.994 26.452 75.798 17.885 22.123 40.259 35.526 67.635 39.95 6.297 1.026 11.421 1.219 14.73 1.219H476.6c8.118 0 14.729-.641 19.539-1.795 33.667-4.81 61.812-21.482 84.462-49.955 21.835-27.382 32.762-59.51 32.762-95.869-.007-26.162-6.317-50.787-18.641-73.36zM198.848 197.51c18.564-18.468 40.881-27.703 67.032-27.703 27.953 0 51.699 10.26 70.937 30.652-47.191 15.968-85.064 54.123-102.199 103.437-6.31-.898-11.421-1.218-14.73-1.218-12.928 0-25.253 2.437-37.572 7.502-7.516-13.53-11.12-28.536-11.12-45.658-.006-26.163 9.241-48.8 27.652-67.012zm355.595 345.066c-17.135 21.354-38.477 33.923-64.325 37.835-2.405.897-6.913 1.219-13.524 1.219H110.173c-2.405 0-6.913-.577-9.017-.577-18.937-3.015-34.571-12.312-47.492-28.28-12.928-15.903-19.238-34.243-19.238-55.021 0-23.15 7.432-43.029 22.547-59.189 15.25-16.288 33.667-24.368 55.008-24.368 12.928 0 24.952 3.015 36.373 9.362-.301-2.116-.603-5.13-.603-9.362 0-21.354 6.913-39.694 21.04-55.021 14.127-15.326 30.96-23.149 51.103-23.149 13.826 0 26.452 3.911 38.175 11.735 3.905-34.244 17.808-63.037 42.08-86.251 24.426-23.342 52.604-35.142 85.365-35.142 34.571 0 64.326 13.21 88.977 39.374 24.65 26.1 37.571 57.714 38.476 94.972 20.143 8.4 36.071 22.252 48.396 41.49s18.636 40.849 18.636 64.896c-.008 29.177-8.421 54.123-25.556 75.477z"/>
</svg>