<svg xmlns="http://www.w3.org/2000/svg" width="614.719" height="614.719">
  <path fill="#fff" d="M372.58 335.254H70.615c-8.07 0-14.795 6.725-14.795 14.795s6.725 14.797 14.795 14.797H372.58c8.07 0 14.796-6.727 14.796-14.797s-6.053-14.795-14.796-14.795zm45.732-53.802H14.795C6.725 281.452 0 288.178 0 296.249s6.725 14.795 14.795 14.795H417.64c8.07 0 14.795-6.725 14.795-14.795s-6.053-14.797-14.123-14.797zM34.299 258.586h364.51c8.07 0 14.797-6.727 14.797-14.797s-6.727-14.795-14.797-14.795H34.299c-8.07 0-14.796 6.725-14.796 14.795s6.726 14.797 14.796 14.797zm65.908-53.803h232.695c8.069 0 14.795-6.725 14.795-14.795s-6.726-14.796-14.795-14.796H100.207c-8.07 0-14.796 6.726-14.796 14.796s6.052 14.795 14.796 14.795zm17.485-53.802h167.459c8.069 0 14.796-6.725 14.796-14.795s-6.727-14.795-14.796-14.795H117.692c-8.07 0-14.796 6.725-14.796 14.795s6.726 14.795 14.796 14.795zm51.112-53.802h64.563c8.07 0 14.795-6.726 14.795-14.796s-6.725-14.795-14.795-14.795h-64.563c-8.07 0-14.795 6.725-14.795 14.795 0 8.071 6.725 14.796 14.795 14.796z"/>
</svg>